<svg width="28" height="26" viewBox="0 0 28 26" fill="none" xmlns="http://www.w3.org/2000/svg">
<g clip-path="url(#clip0_3_171)">
<path d="M14 25.8462C21.732 25.8462 28 20.0603 28 12.9231C28 5.78587 21.732 0 14 0C6.26801 0 0 5.78587 0 12.9231C0 20.0603 6.26801 25.8462 14 25.8462Z" fill="#1C355E"/>
<path d="M6.0113 6.49803L12.4972 13.2881C12.8927 13.6532 13.3672 13.8722 13.9209 13.8722C14.4746 13.8722 15.0282 13.6532 15.3446 13.2881L21.8305 6.57104C21.9096 6.49803 21.9096 6.49803 21.9887 6.42502C21.7514 6.352 21.435 6.27899 21.1186 6.27899H6.88136C6.56497 6.27899 6.24859 6.352 6.0113 6.49803C6.0113 6.42501 6.0113 6.42501 6.0113 6.49803Z" fill="white"/>
<path d="M23.0169 7.22815C23.0169 7.30116 22.9379 7.37417 22.8588 7.44719L16.452 14.0913C15.8192 14.7484 14.9492 15.1134 13.9209 15.1134C12.9717 15.1134 12.0226 14.7484 11.3898 14.0913L4.98305 7.30116C4.98305 7.30116 4.98305 7.30116 4.98305 7.22815C4.74576 7.5202 4.66666 7.88526 4.66666 8.25032V17.5228C4.66666 18.618 5.61582 19.5671 6.88135 19.5671H21.1186C22.3051 19.5671 23.3333 18.691 23.3333 17.5228V8.32333C23.3333 7.88526 23.1751 7.5202 23.0169 7.22815Z" fill="white"/>
</g>
<defs>
<clipPath id="clip0_3_171">
<rect width="28" height="25.8462" fill="white"/>
</clipPath>
</defs>
</svg>
