<svg width="28" height="28" viewBox="0 0 28 28" fill="none" xmlns="http://www.w3.org/2000/svg">
<g clip-path="url(#clip0_3_158)">
<path d="M28 14C28 6.24859 21.7514 0 14 0C6.24859 0 0 6.24859 0 14C0 20.9604 5.14124 26.7345 11.7853 27.8418V18.0339H8.22599V14H11.7853V10.9153C11.7853 7.43503 13.8418 5.45763 17.0847 5.45763C18.5876 5.45763 20.2486 5.69491 20.2486 5.69491V9.17514H18.5085C16.7684 9.17514 16.2147 10.2825 16.2147 11.3898V14H20.0904L19.4576 18.0339H16.2147V27.8418C22.8588 26.7345 28 20.9604 28 14Z" fill="#1C355E"/>
<path d="M19.4576 18.0339L20.0904 14H16.2147V11.3898C16.2147 10.2825 16.7684 9.17516 18.5085 9.17516H20.2486V5.77403C20.2486 5.77403 18.6667 5.53674 17.0847 5.53674C13.9209 5.53674 11.7853 7.43505 11.7853 10.9944V14.0791H8.22598V18.113H11.7853V27.9209C12.4972 28 13.209 28.0791 14 28.0791C14.7119 28.0791 15.5028 28 16.2147 27.9209V18.0339H19.4576Z" fill="white"/>
</g>
<defs>
<clipPath id="clip0_3_158">
<rect width="28" height="28" fill="white"/>
</clipPath>
</defs>
</svg>
