<svg width="29" height="28" viewBox="0 0 29 28" fill="none" xmlns="http://www.w3.org/2000/svg">
<path d="M14.5 28C22.5081 28 29 21.732 29 14C29 6.26801 22.5081 0 14.5 0C6.49187 0 0 6.26801 0 14C0 21.732 6.49187 28 14.5 28Z" fill="#1C355E"/>
<path d="M19.0056 8.70056C18.4322 8.70056 18.0226 9.09604 18.0226 9.64971C18.0226 10.2034 18.4322 10.5989 19.0056 10.5989C19.5791 10.5989 19.9887 10.2034 19.9887 9.64971C19.9887 9.09604 19.5791 8.70056 19.0056 8.70056Z" fill="white"/>
<path d="M14.5819 9.96606C12.2881 9.96606 10.404 11.7853 10.404 14C10.404 16.2147 12.2881 18.0339 14.5819 18.0339C16.8757 18.0339 18.7599 16.2147 18.7599 14C18.7599 11.7062 16.8757 9.96606 14.5819 9.96606ZM14.5819 16.531C13.1073 16.531 11.8785 15.3446 11.8785 13.9209C11.8785 12.4971 13.1073 11.3107 14.5819 11.3107C16.0565 11.3107 17.2853 12.4971 17.2853 13.9209C17.2034 15.4237 16.0565 16.531 14.5819 16.531Z" fill="white"/>
<path d="M17.8588 22.1469H11.0593C8.27401 22.1469 5.98023 19.9322 5.98023 17.2429V10.6779C5.98023 7.98868 8.27401 5.77399 11.0593 5.77399H17.8588C20.6441 5.77399 22.9379 7.98868 22.9379 10.6779V17.2429C23.0198 19.9322 20.726 22.1469 17.8588 22.1469ZM11.0593 7.27681C9.09322 7.27681 7.53672 8.77964 7.53672 10.6779V17.2429C7.53672 19.1412 9.09322 20.644 11.0593 20.644H17.8588C19.8249 20.644 21.3814 19.1412 21.3814 17.2429V10.6779C21.3814 8.77964 19.8249 7.27681 17.8588 7.27681H11.0593Z" fill="white"/>
</svg>
