<svg width="28" height="28" viewBox="0 0 28 28" fill="none" xmlns="http://www.w3.org/2000/svg">
<path d="M14 28C21.732 28 28 21.732 28 14C28 6.26801 21.732 0 14 0C6.26801 0 0 6.26801 0 14C0 21.732 6.26801 28 14 28Z" fill="#1C355E"/>
<path d="M9.10679 10.9757H7.44175H5.7767C5.7767 10.9757 5.6068 10.9418 5.57281 11.1796V21.6117C5.57281 21.6117 5.57281 21.8155 5.74272 21.8155H7.44175H9.14078C9.31068 21.8155 9.31068 21.6117 9.31068 21.6117V11.1796C9.2767 10.9757 9.10679 10.9757 9.10679 10.9757Z" fill="white"/>
<path d="M17.8398 10.7039C17.8398 10.7039 15.6311 10.7039 14.7816 12.4369V11.1796C14.7816 10.9417 14.5777 10.9757 14.5777 10.9757H12.9126H11.2476C11.2476 10.9757 11.0777 10.9417 11.0437 11.1796V21.6116C11.0437 21.6116 11.0437 21.8155 11.2136 21.8155H12.9126H14.6116C14.7816 21.8155 14.7816 21.6116 14.7816 21.6116V15.767C14.7816 15.767 14.8495 13.6262 16.6845 13.5922C18.1456 13.5582 18.4175 14.8835 18.4515 16.3107V17.466V21.6116C18.4515 21.6116 18.4515 21.8155 18.6214 21.8155H20.3204H22.0194C22.1893 21.8155 22.1893 21.6116 22.1893 21.6116L22.2233 16.4126C22.1893 16.4126 22.8689 10.568 17.8398 10.7039Z" fill="white"/>
<path d="M7.40777 9.4806C8.53379 9.4806 9.4466 8.64385 9.4466 7.61167C9.4466 6.57949 8.53379 5.74274 7.40777 5.74274C6.28175 5.74274 5.36893 6.57949 5.36893 7.61167C5.36893 8.64385 6.28175 9.4806 7.40777 9.4806Z" fill="white"/>
</svg>
