<?xml version="1.0" encoding="utf-8"?>
<!-- Generator: Adobe Illustrator 22.0.0, SVG Export Plug-In . SVG Version: 6.00 Build 0)  -->
<svg version="1.1" id="Capa_1" xmlns="http://www.w3.org/2000/svg" xmlns:xlink="http://www.w3.org/1999/xlink" x="0px" y="0px"
	 viewBox="0 0 1080 1080" style="enable-background:new 0 0 1080 1080;" xml:space="preserve">
<style type="text/css">
	.st0{display:none;}
	.st1{display:inline;fill:none;stroke:#020203;stroke-width:24;stroke-linecap:round;stroke-miterlimit:10;}
	.st2{display:inline;}
	.st3{fill:#020203;}
	.st4{display:inline;fill:#FFFFFF;}
	.st5{fill:#FFFFFF;}
	.st6{display:inline;fill:#F26178;}
	.st7{display:inline;fill:#1E4295;}
	.st8{display:inline;fill:#E1B77E;}
	.st9{display:inline;fill:#EFA693;}
	.st10{display:inline;fill:#1C355E;}
	.st11{fill:#F26178;}
</style>
<g id="Capa_1_1_" class="st0">
	<path class="st1" d="M-4878.5,63.5c0,0,40.4-43.3,74.5-17.5c33,25,1.5,64.5,1.5,64.5s-67.5,93.5-4,120c55.1,23,95.5-24.5,95.5-24.5
		"/>
	<path class="st1" d="M-4445,225c0,0-198.5,214.5-351.5,119.5c0,0-20.5-22.5-90.5-5.5s-70,172,5,171s92-87,92-87l139-384"/>
	<path class="st1" d="M-4651,39c0,0,28,137,27,154c0,0,69-102,123-134c0,0-80,246-31,298s101,0,101,0"/>
	<g class="st2">
		<path class="st3" d="M-5615.8,60.4c0.8-0.9,1.5-1.6,2.3-2.4c0.8-0.8,1.5-1.5,2.3-2.3c1.5-1.5,3.1-2.9,4.8-4.3
			c3.2-2.8,6.7-5.4,10.3-7.9c7.2-4.8,15.2-8.9,24.2-11c4.5-1,9.2-1.6,14-1.3c4.8,0.3,9.6,1.3,14.2,3.1c2.3,0.9,4.4,2,6.5,3.2
			s4,2.6,5.9,4c3.7,2.9,7.2,6.5,10.1,10.7c2.8,4.2,4.9,9,6,14s1.3,10.1,0.8,15s-1.6,9.6-3.1,14s-3.4,8.7-5.6,12.7
			c-1.1,2-2.3,4-3.5,6l-1,1.5l-0.5,0.8c-0.1,0.1-0.3,0.3-0.2,0.3l0.1-0.1l0,0l-0.1,0.1l-1.5,2.4c-2,3.3-4,6.7-5.9,10.2
			c-3.7,6.9-7.1,14-9.9,21.1s-5.2,14.4-6.8,21.5c-0.8,3.6-1.3,7.1-1.7,10.5c-0.3,3.4-0.4,6.8-0.1,9.9c0.3,3.1,0.9,6,1.8,8.6
			s2.2,4.9,3.8,6.9c1.6,2,3.5,3.9,5.8,5.5s5,3,8,4.2c6.5,2.6,13.1,4.2,19.6,4.7c1.6,0.1,3.2,0.2,4.8,0.1c1.6,0,3.2-0.1,4.8-0.2
			c3.2-0.3,6.3-0.9,9.4-1.7c6.2-1.6,12.4-4.2,18.5-7.6c1.5-0.9,3-1.8,4.5-2.7c1.5-1,2.9-2,4.4-3.1c1.4-1.1,3-2,5.3-2.4
			c1.1-0.2,2.4-0.3,3.9-0.3c0.7,0,1.5,0,2.4,0.1l1.4,0.1c0.5,0.1,1,0.1,1.5,0.3l0.9,0.2c1.1,0.3,2,1.1,2.4,2c0.3,0.6,0.4,1,0.6,1.5
			l0.4,1.4c0.3,0.9,0.4,1.7,0.5,2.5c0.2,1.6,0.2,3.1-0.1,4.4c-0.4,2.7-1.6,4.8-3.2,6.5c-1.5,1.8-3.1,3.5-4.7,5.2
			c-1.7,1.7-3.4,3.3-5.2,4.8c-7.2,6.2-15.8,11.2-25.4,14.2c-9.5,3.1-19.8,4.1-29.6,3.1c-9.9-0.9-19.3-3.7-27.9-7.4
			c-4.6-2-9.2-4.5-13.5-7.7s-8.3-7.2-11.6-11.7c-3.3-4.6-5.7-9.7-7.3-14.9c-1.6-5.2-2.4-10.5-2.5-15.5c-0.3-10.1,1.5-19.5,4-28.2
			c2.6-8.7,6-16.9,9.9-24.7s8.2-15.3,12.8-22.5c2.3-3.6,4.7-7.1,7.2-10.7l2-2.7l0.4-0.6l0.2-0.3l0.4-0.5l0.8-1
			c1.1-1.4,2.1-2.9,3.1-4.4c3.9-6.1,6.8-12.7,8-19.2c0.6-3.3,0.7-6.4,0.2-9.5c-0.5-3-1.4-5.9-3-8.7c-1.6-2.7-3.7-5.3-6.2-7.6
			c-1.3-1.2-2.6-2.2-4-3.2s-2.9-1.8-4.4-2.5c-6-2.9-12.9-3.7-20-2.6c-7.1,1.1-14.2,4.1-20.9,7.9c-3.4,1.9-6.6,4.1-9.8,6.4
			c-1.6,1.2-3.1,2.4-4.6,3.6c-0.8,0.6-1.5,1.3-2.2,1.9c-0.7,0.6-1.5,1.3-2.1,1.9l-0.1,0.1c-1.8,1.7-4.7,1.7-6.5-0.1
			C-5617.4,64.9-5617.4,62.1-5615.8,60.4z"/>
	</g>
	<g class="st2">
		<path class="st3" d="M-5173.9,229.7c-3,3.2-5.8,6.2-8.8,9.3c-3,3-6,6-9,8.9c-6,5.9-12.2,11.6-18.5,17.3
			c-12.5,11.3-25.5,22.1-38.9,32.4s-27.2,20.1-41.6,29.1c-7.2,4.5-14.5,8.9-21.9,13s-15,8.1-22.7,11.8c-7.7,3.7-15.6,7.1-23.6,10.2
			c-4,1.6-8,3-12.1,4.5l-6.1,2c-2,0.7-4.1,1.3-6.2,1.9c-8.3,2.4-16.7,4.5-25.3,6.1c-8.6,1.6-17.3,2.7-26.1,3.2
			c-8.8,0.6-17.6,0.5-26.5-0.2c-8.8-0.7-17.7-2-26.4-4.1c-8.7-2.1-17.2-4.8-25.5-8.2c-8.3-3.5-16.2-7.5-23.9-12.1l0,0l-2.5-2.1
			l0.2,0.2l0.1,0.1l0,0h-0.1h-0.1l-0.2-0.1c-0.3-0.1-0.4-0.3-0.8-0.4l-1-0.5l-1.1-0.5c-0.7-0.3-1.6-0.6-2.4-0.9s-1.7-0.5-2.6-0.8
			c-1.7-0.5-3.7-0.8-5.5-1.2l-2.9-0.4c-1-0.1-1.9-0.3-2.9-0.3c-4-0.4-8.1-0.4-12.2-0.4l-6.3,0.3l-6.4,0.6c-2.1,0.1-4.3,0.6-6.4,0.9
			l-3.2,0.5l-1.6,0.2l-1.6,0.3l-6.4,1.3c-1.1,0.2-2.1,0.4-3.2,0.7l-3.2,0.8l-6.5,1.6c-0.5,0.1-1.1,0.3-1.6,0.4l-1.2,0.4
			c-0.8,0.2-1.5,0.5-2.3,0.8c-3,1.1-5.8,2.7-8.5,4.6c-5.3,3.9-10.1,9.4-14,15.9c-4,6.5-7,14-9.3,21.8c-4.5,15.7-5.7,33-3.8,49.4
			c1,8.2,3,16.2,6,23.4c3,7.2,7.1,13.5,12.3,18.1c2.6,2.3,5.4,4.2,8.4,5.5c3.1,1.4,6.4,2.3,9.9,2.7c0.9,0.2,1.8,0.1,2.7,0.2h0.7h0.8
			h1.5h3.1c1,0,2-0.2,3.1-0.2l3.1-0.3c1-0.1,2-0.3,3-0.5s2-0.3,3-0.5l2.9-0.7c15.8-3.9,29.6-14.1,40-27.6c2.6-3.4,5-7,7.2-10.7
			s4.2-7.6,6-11.6s3.5-8.1,4.9-12.2c0.7-2.1,1.4-4.2,2-6.2c0.3-1,0.6-2.1,0.9-3.1l0.4-1.5l0.3-1.3l0.2-1l0.2-0.5l17.6-47.9
			c5.9-16,11.6-32,17.5-48l17.4-48l17.2-48.1l8.6-24l8.5-24.1c5.7-16,11.4-32.1,17-48.1c11.3-32.1,22.5-64.2,33.4-96.5
			c2.1-6.3,8.9-9.6,15.2-7.5s9.6,8.9,7.5,15.2c0,0.1-0.1,0.3-0.2,0.4c-12.2,31.8-24.2,63.6-36.1,95.5c-6,15.9-11.8,31.9-17.7,47.9
			l-8.8,23.9l-8.8,24l-17.5,47.9l-17.3,48c-5.8,16-11.6,32-17.3,48l-17.2,48.1l0.4-1.5c-0.2,0.9-0.3,1.4-0.5,2.1l-0.5,1.9
			c-0.3,1.2-0.6,2.5-1,3.7c-0.7,2.4-1.5,4.8-2.3,7.2c-1.6,4.8-3.4,9.5-5.5,14.1s-4.4,9.1-6.9,13.5s-5.3,8.7-8.4,12.9
			c-6.2,8.3-13.3,16-21.9,22.4c-1.1,0.8-2.1,1.6-3.2,2.4l-3.4,2.2l-1.7,1.1l-1.8,1l-3.5,2c-1.2,0.6-2.4,1.2-3.6,1.8
			c-1.2,0.6-2.4,1.2-3.7,1.7l-3.8,1.5c-0.6,0.2-1.3,0.5-1.9,0.7l-1.9,0.6l-3.9,1.2c-1.3,0.4-2.6,0.6-3.9,0.9
			c-1.3,0.3-2.6,0.6-3.9,0.9l-4,0.6c-1.3,0.2-2.7,0.4-4,0.5l-4,0.3l-2,0.1l-1,0.1h-1.1c-1.5,0-2.9,0.1-4.4-0.1
			c-5.9-0.3-11.9-1.4-17.6-3.5s-11.1-5.1-15.8-8.7c-4.7-3.7-8.9-7.9-12.4-12.4s-6.5-9.4-9-14.3c-5-9.9-8.1-20.3-10.1-30.7
			c-1-5.2-1.7-10.4-2.1-15.7c-0.4-5.2-0.5-10.5-0.3-15.8c0.4-10.5,1.7-21,4.5-31.4c2.7-10.4,6.6-20.6,12.3-30.3
			c5.7-9.7,13.4-18.9,23.5-25.9c5-3.5,10.6-6.4,16.5-8.4c1.5-0.5,3-1,4.5-1.4l2.3-0.6c0.7-0.2,1.3-0.3,1.9-0.4l7.4-1.5l3.7-0.7
			c1.2-0.2,2.5-0.4,3.7-0.6l7.5-1l1.9-0.3l1.9-0.2l3.8-0.3c2.6-0.2,5.1-0.5,7.7-0.5l7.8-0.1c2.6,0.1,5.3,0.2,7.9,0.3
			c1.3,0,2.6,0.2,4,0.3l4,0.5l2,0.2l2,0.4l4,0.8c1.3,0.2,2.7,0.6,4,1l4,1.1c1.3,0.5,2.7,0.9,4,1.4c1.3,0.4,2.7,1,4,1.6
			s2.6,1.2,4,1.9c1.3,0.7,2.6,1.4,4,2.3c0.7,0.4,1.3,0.8,2,1.3l2,1.5c0.6,0.5,1.4,1.1,2,1.7l0.5,0.5l0.6,0.6l0.6,0.6l0.4,0.4
			l0.5,0.5l-2.5-2.1l0,0c6.6,4.1,13.4,7.8,20.4,11c7.1,3.1,14.4,5.6,21.8,7.6c7.5,2,15.1,3.3,22.9,4.1c7.7,0.8,15.6,1.1,23.4,0.8
			c7.9-0.3,15.7-1.1,23.6-2.3c7.8-1.2,15.6-3,23.4-5c1.9-0.5,3.9-1,5.8-1.6l5.8-1.7c3.8-1.3,7.7-2.5,11.4-3.9
			c7.6-2.8,15.1-5.8,22.5-9.1c7.4-3.3,14.7-6.9,21.9-10.7c7.2-3.8,14.3-7.8,21.4-12c14.1-8.4,27.7-17.5,41-27.2s26.2-19.9,38.7-30.6
			c6.3-5.4,12.4-10.8,18.5-16.4c3-2.8,6-5.6,9-8.5c2.9-2.8,5.9-5.8,8.6-8.6l0.1-0.1c2.6-2.7,7-2.8,9.7-0.2
			C-5171.6,222.7-5171.4,226.9-5173.9,229.7z"/>
	</g>
	<g class="st2">
		<path class="st3" d="M-5373.2,36.6c2.6,12.8,5.2,25.6,7.7,38.4s5,25.7,7.4,38.5c2.4,12.9,4.8,25.7,7,38.7c1.1,6.5,2.2,13,3.1,19.6
			c0.5,3.3,0.9,6.6,1.3,10c0.2,1.7,0.4,3.5,0.5,5.3c0.1,0.9,0.1,2,0.2,2.9c0,0.3,0,0.5,0,0.8v1v1.9l-21.9-7.4l0,0
			c1.5-0.2,2.6-0.6,3.7-1.1c1-0.5,2-1,2.8-1.6c1.7-1.2,2.8-2.7,3.9-4.3c2.2-3.1,4.5-6.3,6.7-9.4c4.5-6.2,9.1-12.4,13.7-18.5
			c9.3-12.3,18.8-24.3,28.6-36.3c4.9-6,10-11.8,15.1-17.6c5.1-5.8,10.4-11.6,15.9-17.2c5.4-5.6,11.1-11.1,17.1-16.4
			c3-2.7,6.1-5.3,9.3-7.8c1.6-1.3,3.2-2.5,4.9-3.8l5.1-3.6l25.2-17.9l-7.7,32l0,0c-2.8,8.1-5.4,16.4-8,24.7s-5.1,16.6-7.6,25
			c-4.9,16.7-9.5,33.5-13.8,50.3c-4.2,16.9-8.1,33.8-11.5,50.8c-3.3,17-6.1,34.1-8,51.2c-0.9,8.6-1.6,17.1-1.9,25.6
			s-0.2,17,0.6,25.4c0.3,4.2,1,8.3,1.7,12.3c0.8,4,1.8,7.9,3.2,11.6c1.3,3.7,3.1,7.2,5.2,10.2c0.5,0.8,1.1,1.4,1.7,2.2
			c0.5,0.7,1.3,1.4,2,2.2c1.4,1.5,2.8,3,4.4,4.3l2.3,2.1c0.8,0.7,1.6,1.3,2.4,1.9s1.6,1.3,2.4,1.8l2.5,1.7l1.3,0.8
			c0.4,0.3,0.9,0.5,1.3,0.7l2.6,1.5c0.9,0.5,1.8,0.8,2.7,1.3c0.9,0.4,1.8,0.9,2.7,1.2l2.8,1c0.9,0.3,1.9,0.5,2.9,0.8l1.4,0.4
			l1.5,0.3c1,0.2,1.9,0.4,2.9,0.5c3.9,0.6,7.9,0.6,11.9,0.2c8-0.7,16-3.2,23.5-6.8c3.7-1.8,7.4-3.9,10.9-6.2
			c1.8-1.1,3.4-2.4,5.1-3.7c0.8-0.6,1.6-1.3,2.4-2c0.8-0.6,1.6-1.4,2.3-2l0.1-0.1c1.7-1.6,4.3-1.5,5.8,0.2c1.5,1.6,1.5,4.2-0.1,5.7
			c-0.9,0.9-1.7,1.7-2.6,2.5s-1.7,1.5-2.6,2.3c-1.8,1.5-3.6,2.9-5.4,4.2c-3.7,2.7-7.6,5.1-11.7,7.3c-4.1,2.2-8.3,4-12.8,5.5
			c-4.4,1.5-9,2.6-13.7,3.2s-9.5,0.7-14.3,0.2c-1.2-0.1-2.4-0.3-3.6-0.5l-1.8-0.3l-1.8-0.4c-1.2-0.3-2.3-0.5-3.5-0.8l-3.4-1.1
			c-1.2-0.3-2.3-0.8-3.4-1.3s-2.2-0.9-3.3-1.4l-3.2-1.6c-0.5-0.3-1.1-0.5-1.6-0.8l-1.5-0.9l-3-1.9c-1-0.6-1.9-1.4-2.9-2
			c-0.9-0.7-1.9-1.4-2.8-2.1l-2.7-2.3c-1.8-1.5-3.5-3.1-5.2-4.7c-0.8-0.8-1.7-1.5-2.5-2.6c-0.8-1-1.8-1.9-2.5-3
			c-3.1-4.1-5.5-8.5-7.2-12.9c-1.8-4.5-3.2-9-4.3-13.5c-1-4.5-1.9-9.1-2.4-13.6c-1.2-9.1-1.6-18.1-1.6-27.1s0.3-17.9,0.9-26.9
			c1.3-17.8,3.5-35.4,6.2-53c2.8-17.5,6.1-34.9,9.7-52.2c3.7-17.3,7.7-34.5,12-51.6c2.2-8.6,4.4-17.1,6.7-25.6
			c2.3-8.6,4.7-17,7.3-25.6l0,0l17.5,14l-4.6,2.4l-4.5,2.7c-3,1.9-6,3.9-8.9,6.1l-2.2,1.6l-2.2,1.7c-1.4,1.1-2.9,2.2-4.3,3.4
			l-4.3,3.5l-4.2,3.6c-5.5,5-11,10.1-16.3,15.4s-10.4,10.8-15.5,16.4c-5.1,5.6-10,11.3-14.9,17c-4.8,5.8-9.6,11.7-14.3,17.6
			c-4.7,6-9.3,12-13.7,18.1c-2.2,3-4.5,6.1-6.7,9.2c-1.1,1.5-2.2,3.1-2.7,5c-0.3,1-0.4,2-0.5,3.1c0,1.1,0,2.3,0.4,3.6l0,0
			l-19.7,28.9l-2.2-36.4c0-0.2,0-0.4,0-0.5v-0.3c0-0.1,0-0.3,0-0.4c0-0.7-0.1-1.2-0.1-2c-0.1-1.4-0.3-2.9-0.5-4.4
			c-0.3-3-0.8-6.2-1.2-9.3c-0.9-6.3-2-12.7-3-19c-2.2-12.7-4.5-25.5-6.9-38.3s-4.9-25.5-7.4-38.3s-5-25.5-7.6-38.3
			c-1.3-6.5,2.9-12.8,9.4-14.2S-5374.6,30.1-5373.2,36.6z"/>
	</g>
	<polygon class="st4" points="-4771.2,335.1 -4785.3,372.7 -4816.2,365.9 -4792.7,314.5 	"/>
	<polygon class="st4" points="-4746.6,338.3 -4760.1,377.2 -4731.8,391.1 -4718,336.3 	"/>
	<path class="st4" d="M-4531,284c0,0-32,23-35,24s-20-26-20-26l52-17h10L-4531,284z"/>
	<path class="st4" d="M-4518,304c0,0-42,29-49,32l3,21l13,7l45-30L-4518,304z"/>
	<g class="st2">
		<path class="st3" d="M-4202.1,211.8c-11.7,0-23.5-2.4-35-7.2c-16.7-7-27.9-19-32.4-34.7c-5.2-18.4-1.4-41.7,11.4-69
			c9.1-19.4,19.4-33.8,19.8-34.4l0.3-0.5c3.5-4.5,12.4-18.9,10.8-31.5c-0.8-6.2-4.1-11.4-10.1-16c-25-18.9-58.2,15.8-58.5,16.1
			c-4.5,4.8-12.1,5.1-17,0.5c-4.8-4.5-5.1-12.1-0.6-16.9c0.5-0.5,11.7-12.4,27.6-20.8c23.2-12.3,45-11.6,62.9,2
			c11.1,8.4,17.9,19.6,19.4,32.2c3,24.1-12.9,45.6-15.6,49.1c-10.3,14.3-34.8,56.6-27.5,82.6c2.5,8.7,8.5,14.9,18.5,19.1
			c46.5,19.4,81.4-20.8,81.7-21.2c4.3-5,11.9-5.7,16.9-1.4s5.7,11.9,1.4,16.9c-0.5,0.6-11.8,13.7-30.6,23.7
			C-4172.7,208-4187.4,211.8-4202.1,211.8z"/>
	</g>
	<g class="st2">
		<path class="st3" d="M-4308.7,485c-18.8,0-35.2-8.1-47.3-23.4c-10.3-13-17.1-30.7-19.7-51.3c-3.1-24.8,0.3-51.3,9.5-72.7
			c10.7-25.2,28.7-42,50.5-47.3c67-16.3,93.9,1.7,100.7,7.6c5,3.1,10.1,5.8,15.3,8.2l111.6-308.2c2.3-6.2,9.1-9.5,15.4-7.2
			c6.2,2.3,9.5,9.1,7.2,15.4l-111.6,308.3c51.7,14.4,112.5,0.6,181.3-41.1c66.6-40.4,115.7-93,116.2-93.5c4.5-4.9,12.1-5.2,17-0.7
			s5.2,12.1,0.7,17c-2.1,2.2-51.6,55.3-121,97.5c-41.2,25-80.9,40.9-117.9,47.1c-30,5-58.3,3.8-84.5-3.7l-18.9,52.3
			c-1.1,4.8-6.2,25.4-19.3,46.2c-20.1,31.9-49.2,49-84.1,49.5C-4308.1,485-4308.4,485-4308.7,485z M-4266.1,307.7
			c-11.3,0-25.7,1.5-44,6c-32.1,7.8-46.7,54.7-41.8,93.7c1.6,12.6,9.4,53.6,43.2,53.6c0.2,0,0.4,0,0.6,0
			c64.5-0.9,80.2-76.6,80.4-77.3l0.2-0.9l19.6-54c-7.1-3.2-14-6.9-20.8-11.1l-1.8-1.1l-0.6-0.8
			C-4232.7,314.6-4242.3,307.7-4266.1,307.7z M-4231.1,315.9L-4231.1,315.9L-4231.1,315.9z"/>
	</g>
	<g class="st2">
		<path class="st3" d="M-3910,355.1c-0.3,0-0.7,0-1,0c-20.4-0.3-39.1-9.3-55.7-26.9c-23.5-24.9-25.4-83.5-5.9-179.1
			c7.4-36.1,16.5-70.6,23.5-95.1c-44.6,40.7-90.4,107.9-90.9,108.7l-24.5,36.2l2.6-43.6c0.6-9.7-13.2-84.3-26.8-150.9
			c-1.3-6.5,2.9-12.8,9.4-14.2c6.5-1.3,12.8,2.9,14.2,9.4c3.4,16.8,16.8,82.7,23.4,124.3c24.6-33,69.7-89.2,108.7-112.2l27.4-16.2
			l-9.8,30.2c-0.2,0.6-20,61.8-33.6,128.4c-23,112.9-9.9,147.2-0.1,157.7c11.9,12.6,24.8,19.1,38.4,19.3
			c24.8,0.5,45.2-19.4,45.4-19.6c4.7-4.6,12.3-4.6,17,0.1s4.7,12.3,0,16.9C-3849.6,329.6-3875.5,355.1-3910,355.1z"/>
	</g>
	<polygon class="st4" points="-4197.2,298.1 -4211.3,335.7 -4242.2,328.9 -4218.7,277.5 	"/>
	<polygon class="st4" points="-4172.6,301.3 -4186.1,340.2 -4157.8,354.1 -4144,299.3 	"/>
	<path class="st4" d="M-3957,247c0,0-32,23-35,24s-20-26-20-26l52-17h10L-3957,247z"/>
	<path class="st4" d="M-3944,267c0,0-42,29-49,32l3,21l13,7l45-30L-3944,267z"/>
	<text transform="matrix(1 0 0 1 -4879 735)" style="display:inline;fill:#020203; font-family:'ArialMT'; font-size:72px;">Yessica Murrieta</text>
	<g class="st2">
		<path class="st3" d="M-4127.2,770.9c1.3-1.8,2-3.8,2.1-5.9l44.7-123.5c10.3,52.8,18.8,101.2,18.4,108.8l-2.6,43.6l24.5-36.2
			c0.6-0.8,46.3-68.1,90.9-108.7c-7,24.5-16.1,59-23.5,95.1c-5.2,25.3-8.8,48-11,68.2l24.8-5.9c2-16.4,5.1-35.4,9.6-57.3
			c13.6-66.6,33.4-127.8,33.6-128.4l9.8-30.2l-27.4,16.2c-39,23.1-84.1,79.2-108.7,112.2c-6.7-41.6-20-107.5-23.4-124.3
			c0-0.1,0-0.1-0.1-0.2c-0.1-0.2-0.1-0.4-0.2-0.7c-0.1-0.2-0.1-0.4-0.2-0.5c-0.1-0.2-0.1-0.4-0.2-0.5c-0.1-0.2-0.2-0.4-0.2-0.6
			c-0.1-0.1-0.1-0.3-0.2-0.4c-0.1-0.2-0.2-0.4-0.3-0.6c-0.1-0.1-0.2-0.3-0.2-0.4c-0.1-0.2-0.2-0.4-0.4-0.6c-0.1-0.1-0.2-0.3-0.3-0.4
			c-0.1-0.2-0.2-0.3-0.4-0.5c-0.1-0.2-0.3-0.3-0.4-0.5c-0.1-0.1-0.2-0.3-0.4-0.4c-0.2-0.2-0.3-0.3-0.5-0.4c-0.1-0.1-0.2-0.2-0.4-0.3
			s-0.4-0.3-0.5-0.4c-0.1-0.1-0.3-0.2-0.4-0.3c-0.2-0.1-0.3-0.2-0.5-0.3s-0.3-0.2-0.5-0.3s-0.3-0.1-0.5-0.2
			c-0.2-0.1-0.4-0.2-0.7-0.3c-0.1,0-0.1-0.1-0.2-0.1c-0.1,0-0.2,0-0.2-0.1c-0.2-0.1-0.5-0.2-0.7-0.2c-0.1,0-0.3-0.1-0.4-0.1
			c-0.2-0.1-0.5-0.1-0.7-0.1s-0.3-0.1-0.5-0.1s-0.4,0-0.7-0.1c-0.2,0-0.4,0-0.6,0c-0.2,0-0.4,0-0.6,0c-0.2,0-0.4,0-0.6,0
			c-0.2,0-0.3,0-0.5,0.1c-0.2,0-0.5,0.1-0.7,0.1c-0.1,0-0.2,0-0.3,0s-0.2,0-0.2,0.1c-0.2,0-0.4,0.1-0.6,0.2
			c-0.2,0.1-0.4,0.1-0.5,0.2c-0.2,0.1-0.3,0.1-0.5,0.2c-0.2,0.1-0.4,0.2-0.6,0.2c-0.1,0.1-0.3,0.1-0.4,0.2c-0.2,0.1-0.4,0.2-0.6,0.3
			c-0.1,0.1-0.3,0.2-0.4,0.2c-0.2,0.1-0.4,0.2-0.6,0.4c-0.1,0.1-0.3,0.2-0.4,0.3c-0.2,0.1-0.3,0.3-0.5,0.4c-0.1,0.1-0.3,0.3-0.4,0.4
			c-0.1,0.1-0.3,0.3-0.4,0.4c-0.1,0.2-0.3,0.3-0.4,0.5c-0.1,0.1-0.2,0.3-0.3,0.4c-0.1,0.2-0.3,0.4-0.4,0.5c-0.1,0.1-0.2,0.3-0.3,0.4
			c-0.1,0.2-0.2,0.3-0.3,0.5s-0.2,0.3-0.3,0.5s-0.2,0.3-0.2,0.5c-0.1,0.2-0.2,0.4-0.3,0.6c0,0.1-0.1,0.1-0.1,0.2l-59.9,165.5
			c-8.1,8.2-39.6,35.8-79.7,19c-10-4.2-16-10.4-18.5-19.1c-7.4-26,17.2-68.3,27.5-82.6c2.7-3.5,18.6-25,15.6-49.1
			c-1.6-12.6-8.3-23.8-19.4-32.2c-17.9-13.6-39.7-14.3-62.9-2c-16,8.4-27.2,20.3-27.6,20.8c-4.5,4.8-4.3,12.4,0.6,16.9
			c4.8,4.5,12.4,4.3,17-0.5c0.3-0.4,33.5-35.1,58.5-16.1c6,4.5,9.3,9.8,10.1,16c1.6,12.5-7.2,27-10.8,31.5l-0.3,0.5
			c-0.4,0.6-10.8,15-19.8,34.4c-12.8,27.3-16.6,50.5-11.4,69c4.4,15.8,15.6,27.8,32.4,34.7c11.5,4.8,23.2,7.2,35,7.2
			c13.4,0,26.8-3.1,39.8-9.4l-27.3,75.4l-2.5,6.9l-7.7,21.4l0,0l-11.6,32l-16.1,44.6l-0.2,0.9c-0.2,0.8-15.9,76.5-80.4,77.3
			c-0.2,0-0.4,0-0.6,0c-33.8,0-41.6-41-43.2-53.6c-4.9-39,9.6-85.9,41.8-93.7c18.3-4.4,32.8-6,44-6c7.4,0,13.5,0.7,18.3,1.6l9-22.6
			c-15.9-4-40.5-5.2-77,3.6c-21.8,5.3-39.7,22.1-50.5,47.3c-9.2,21.5-12.6,48-9.5,72.7c2.6,20.5,9.4,38.2,19.7,51.3
			c12.1,15.3,28.5,23.4,47.3,23.4c0.3,0,0.6,0,0.9,0c34.9-0.5,64-17.6,84.1-49.5c13.1-20.8,18.2-41.5,19.3-46.2l18.9-52.3
			c0.2,0,0.3,0.1,0.5,0.1l8.1-22.6c-0.1,0-0.3-0.1-0.5-0.1L-4127.2,770.9z"/>
		<g>
			<path class="st3" d="M-3960.2,873.9c57.1-38.8,96.2-80.7,98-82.7c4.5-4.9,4.2-12.5-0.7-17s-12.5-4.2-17,0.7
				c-0.3,0.4-24.7,26.5-62.3,56l0,0c0,0.3-1.8,1.6-4.2,3.2c-4.4,3.4-9.1,6.9-13.8,10.4l0,0c-1.9,2.1-15.3,10.8-25.6,17.4v0.1
				c-3.4,2.2-6.8,4.3-10.3,6.4c-0.5,0.3-1,0.6-1.4,0.9c-0.2,0.1-0.3,0.2-0.3,0.2l0,0c-49.4,29.6-94.6,44.8-135.2,45.5l-7.8,23.8
				c12.9,0.3,26.1-0.7,39.8-3c36.4-6.1,75.4-21.6,115.9-45.9L-3960.2,873.9z"/>
			<path class="st3" d="M-3848.5,906.6c-4.7-4.7-12.2-4.7-17-0.1c-0.2,0.2-20.6,20.1-45.4,19.6c-12-0.2-23.4-5.3-34-15
				c-8.5,3.2-17.9,6.6-24.7,8.8c0.9,1.2,1.9,2.3,2.9,3.3c16.5,17.5,35.2,26.6,55.7,26.9c0.3,0,0.7,0,1,0c34.5,0,60.4-25.5,61.5-26.6
				C-3843.8,918.8-3843.8,911.2-3848.5,906.6z"/>
		</g>
	</g>
</g>
<g id="Capa_2_1_">
	<g>
		<path class="st5" d="M870.5,141.6c-74.6,44.2-161.1,151.7-208.1,214.9C650.6,282.7,627.8,169,619.3,127l-43.8-16.1
			c-0.1,0.2-0.3,0.5-0.4,0.7c-0.2,0.3-0.4,0.7-0.5,1c-0.2,0.3-0.3,0.6-0.4,0.9c-0.2,0.4-0.4,0.8-0.5,1.2c-0.1,0.1-0.1,0.3-0.2,0.4
			l-114.8,317c-15.5,15.6-75.9,68.5-152.6,36.5c-19.1-8-30.7-19.9-35.4-36.6c-14.1-49.9,32.9-130.7,52.6-158.2
			c5.2-6.6,35.6-47.9,29.9-93.9c-3-24.2-15.9-45.5-37.2-61.7c-34.3-26-75.9-27.3-120.4-3.8c-30.6,16.2-52,38.9-52.9,39.9
			c-0.1,0.1-0.1,0.1-0.2,0.2l34,30.9c4.6-4.7,65.5-65.6,111.8-30.6c11.5,8.7,17.8,18.7,19.4,30.6c3.1,24-13.8,51.7-20.6,60.2
			l-0.7,0.9c-0.8,1.2-20.6,28.7-38,65.8c-24.5,52.3-31.8,96.8-21.9,132.1c8.5,30.2,29.9,53.2,62,66.5c22,9.2,44.5,13.8,67,13.8
			c25.7,0,51.4-6,76.3-18L330.9,788.3c-0.3,1.4-41.1,142-153.9,148c-0.4,0-0.7,0-1.1,0c-64.7,0-79.7-78.5-82.8-102.7
			c-9.4-74.6,18.5-119.4,80-134.3c35-8.5,54.5-9.4,76.1-9.4c14.2,0,25.8,1.3,35.1,3.1l17.1-43.3c-30.5-7.6-69.4-12.1-139.2,4.9
			c-41.7,10.1-84.4,40.2-104.8,88.5c-15.8,37.5-15.8,70.3-12,98.3c5.4,39.2,20.1,71.2,39.8,96.1c23.2,29.3,54.5,44.8,90.6,44.8
			c0.6,0,1.1,0,1.7,0c66.9-0.9,128.4-30.3,161.1-94.7c16.8-33.1,34.9-79.4,36.9-88.5l123.3-343c2.4-3.4,3.8-7.3,4.1-11.3l85.7-236.5
			c19.7,101.2,36,193.7,35.2,208.3l-4.9,83.5l46.9-69.3c1.1-1.6,88.6-130.3,174.1-208.2c-13.4,46.9-30.9,113-45,182.1
			c-9.9,48.5-16.9,92-21,130.6l47.6-11.4c3.9-31.4,9.8-67.7,18.4-109.7c26-127.5,63.9-244.7,64.3-245.8l18.8-57.9L870.5,141.6z"/>
		<g>
			<path class="st5" d="M997.9,489.3c-11.3,9.2-60.1,48.2-129,89.8l0,0c-0.1,0.5-3.7,2.5-8.7,5.2c-9.3,5.5-18.8,11-28.7,16.5
				c0,0,0,0-0.1,0c-4.1,3.5-31.6,17-52.7,27c0,0.1,0,0.2,0,0.2c-6.9,3.3-14,6.6-21.1,9.8c-1,0.4-2,0.9-2.9,1.3
				c-0.4,0.2-0.6,0.3-0.6,0.3l0,0c-100.7,44.8-190.2,63-267.7,54.8l-20.3,43.4c24.4,3.6,49.8,4.8,76.3,3.7
				c70.6-3.1,148.3-23.4,231-60.2l51.2-24.5c109.1-56,189.2-120.6,203.4-132.4L997.9,489.3z"/>
			<path class="st5" d="M1003.7,712.7c-1.3,0.8-2.5,1.8-3.6,2.9c-0.4,0.4-39.5,38.5-87,37.6c-22.9-0.4-44.7-10.1-65.1-28.7
				c-16.3,6.1-34.2,12.7-47.3,16.8c1.7,2.2,3.6,4.4,5.5,6.4c31.6,33.6,67.5,50.9,106.6,51.5c0.7,0,1.3,0,2,0
				c66.1,0,115.7-48.9,117.8-51c1.7-1.7,3-3.6,4.1-5.6L1003.7,712.7z"/>
		</g>
	</g>
</g>
<g id="a_Colores" class="st0">
	
		<text transform="matrix(1 0 0 1 -4819.3384 710.2041)" class="st10" style="font-family:'Montserrat-SemiBold'; font-size:92.3521px;">Yessica Murrieta</text>
	<text transform="matrix(1 0 0 1 -4710.7437 786.1758)" class="st10" style="font-family:'Raleway-Light'; font-size:61.9907px;">Diseñadora gráfica</text>
	<text transform="matrix(1 0 0 1 -4767.7432 970.1758)" class="st6" style="font-family:'Raleway-Light'; font-size:24px;">Pantone 709 C</text>
	<rect x="-5132" y="180" class="st6" width="98" height="97"/>
	<rect x="-5132" y="275" class="st7" width="98" height="97"/>
	<rect x="-5132" y="363" class="st8" width="98" height="97"/>
	<rect x="-5132" y="452" class="st9" width="98" height="97"/>
	<rect x="-5132" y="275" class="st10" width="98" height="97"/>
	<rect x="-4861" y="924.8" class="st6" width="56" height="55.4"/>
	<text transform="matrix(1 0 0 1 -4122.7432 970.1758)" class="st10" style="font-family:'Raleway-Light'; font-size:24px;">Pantone 534 C</text>
	<rect x="-4216" y="924.8" class="st10" width="56" height="55.4"/>
	<g class="st2">
		<path class="st11" d="M-4296.9,213.4c-36.4,21.6-78.5,73.9-101.5,104.8c-5.8-36-16.9-91.4-21-111.9l-21.3-7.9
			c-0.1,0.1-0.1,0.2-0.2,0.4s-0.2,0.3-0.3,0.5c-0.1,0.1-0.1,0.3-0.2,0.4c-0.1,0.2-0.2,0.4-0.3,0.6c0,0.1-0.1,0.1-0.1,0.2
			l-55.9,154.5c-7.6,7.6-37,33.4-74.4,17.8c-9.3-3.9-15-9.7-17.3-17.8c-6.9-24.3,16.1-63.7,25.6-77.1c2.5-3.2,17.4-23.3,14.6-45.8
			c-1.5-11.8-7.8-22.2-18.2-30.1c-16.7-12.7-37-13.3-58.7-1.8c-14.9,7.9-25.4,19-25.8,19.5l-0.1,0.1l16.6,15.1
			c2.2-2.3,32-32,54.5-14.9c5.6,4.2,8.7,9.1,9.4,14.9c1.5,11.7-6.8,25.2-10,29.4l-0.3,0.4c-0.4,0.6-10.1,14-18.5,32.1
			c-11.9,25.5-15.5,47.2-10.7,64.4c4.2,14.7,14.6,25.9,30.2,32.4c10.7,4.5,21.7,6.7,32.7,6.7c12.5,0,25-2.9,37.2-8.8l-49.1,137.3
			c-0.1,0.7-20,69.3-75.1,72.2c-0.2,0-0.4,0-0.5,0c-31.6,0-38.9-38.3-40.4-50.1c-4.6-36.4,9-58.2,39-65.5
			c17.1-4.2,26.6-4.6,37.1-4.6c6.9,0,12.6,0.6,17.1,1.5l8.4-21.1c-14.9-3.7-33.8-5.9-67.9,2.4c-20.3,4.9-41.1,19.6-51.1,43.1
			c-7.7,18.3-7.7,34.3-5.8,47.9c2.6,19.1,9.8,34.7,19.4,46.9c11.3,14.3,26.6,21.8,44.2,21.8c0.3,0,0.6,0,0.8,0
			c32.6-0.4,62.6-14.8,78.5-46.2c8.2-16.1,17-38.7,18-43.1l60.1-167.3c1.2-1.7,1.8-3.6,2-5.5l41.7-115.3
			c9.6,49.3,17.6,94.4,17.1,101.6l-2.4,40.7l22.9-33.8c0.5-0.8,43.2-63.5,84.9-101.5c-6.5,22.9-15.1,55.1-21.9,88.8
			c-4.8,23.6-8.2,44.8-10.2,63.7l23.2-5.5c1.9-15.3,4.8-33,9-53.5c12.7-62.2,31.2-119.3,31.3-119.9l9.2-28.2L-4296.9,213.4z"/>
		<g>
			<path class="st11" d="M-4234.7,383c-5.5,4.5-29.3,23.5-62.9,43.8l0,0c-0.1,0.3-1.8,1.2-4.2,2.5c-4.5,2.7-9.2,5.4-14,8l0,0
				c-2,1.7-15.4,8.3-25.7,13.2v0.1c-3.4,1.6-6.8,3.2-10.3,4.8c-0.5,0.2-1,0.4-1.4,0.6c-0.2,0.1-0.3,0.1-0.3,0.1l0,0
				c-49.1,21.8-92.7,30.7-130.5,26.7l-9.9,21.2c11.9,1.8,24.3,2.4,37.2,1.8c34.4-1.5,72.3-11.4,112.6-29.3l24.9-12
				c53.2-27.3,92.2-58.8,99.2-64.6L-4234.7,383z"/>
			<path class="st11" d="M-4231.9,491.9c-0.6,0.4-1.2,0.9-1.8,1.4c-0.2,0.2-19.3,18.8-42.4,18.3c-11.2-0.2-21.8-4.9-31.7-14
				c-7.9,3-16.7,6.2-23.1,8.2c0.9,1.1,1.7,2.1,2.7,3.1c15.4,16.4,32.9,24.8,52,25.1c0.3,0,0.6,0,1,0c32.2,0,56.4-23.8,57.4-24.9
				c0.8-0.8,1.5-1.7,2-2.7L-4231.9,491.9z"/>
		</g>
	</g>
</g>
</svg>
